<svg width="25" height="25" fill="none" xmlns="http://www.w3.org/2000/svg"><g clip-path="url(#a)"><path fill-rule="evenodd" clip-rule="evenodd" d="M21.875 7.031v14.844A3.125 3.125 0 0 1 18.75 25h-1.563v-1.563h1.563a1.563 1.563 0 0 0 1.563-1.562V7.031h-3.125a2.344 2.344 0 0 1-2.344-2.343V1.563H6.25a1.562 1.562 0 0 0-1.563 1.562v14.063H3.125V3.124A3.125 3.125 0 0 1 6.25 0h8.594l7.031 7.031ZM5.495 23.19a1.765 1.765 0 0 0 .627 1.286c.203.169.451.3.747.394.297.095.642.142 1.039.142.528 0 .975-.083 1.342-.247.369-.164.65-.394.842-.687.195-.296.292-.638.292-1.025 0-.35-.07-.641-.209-.875a1.564 1.564 0 0 0-.586-.558 3.164 3.164 0 0 0-.884-.328l-.97-.225a1.515 1.515 0 0 1-.632-.275.578.578 0 0 1-.225-.468.74.74 0 0 1 .29-.6c.194-.157.462-.237.8-.237.223 0 .415.036.577.106.15.061.282.158.385.283.096.116.16.255.187.403h1.172a1.707 1.707 0 0 0-.312-.884 1.89 1.89 0 0 0-.782-.64c-.383-.17-.8-.25-1.218-.238-.458 0-.861.078-1.213.234a1.928 1.928 0 0 0-.823.658 1.7 1.7 0 0 0-.297.998c0 .314.062.588.19.819.129.233.313.422.55.573.238.149.52.261.843.333l.965.225c.324.077.564.177.724.302a.605.605 0 0 1 .237.51.789.789 0 0 1-.133.452.874.874 0 0 1-.398.302c-.174.073-.39.11-.645.11a1.86 1.86 0 0 1-.5-.063 1.31 1.31 0 0 1-.388-.18.904.904 0 0 1-.398-.6H5.495ZM1.26 21.395c0-.387.054-.718.16-.989.092-.25.257-.466.472-.623.219-.147.478-.222.742-.214.234 0 .442.05.622.151.176.094.323.235.425.407.109.18.173.384.187.595h1.196v-.113a2.079 2.079 0 0 0-.729-1.506 2.252 2.252 0 0 0-.764-.425 2.873 2.873 0 0 0-.947-.151c-.556 0-1.03.115-1.423.348-.39.231-.688.56-.894.988C.103 20.29 0 20.8 0 21.393v.777c0 .592.1 1.1.302 1.525.204.424.503.75.893.978.39.227.866.34 1.428.34.458 0 .866-.086 1.227-.257a2.16 2.16 0 0 0 .86-.71c.215-.31.337-.675.353-1.052v-.119H3.869a1.249 1.249 0 0 1-.185.567c-.104.166-.25.301-.425.39-.195.095-.41.142-.626.137a1.321 1.321 0 0 1-.747-.207 1.301 1.301 0 0 1-.467-.612 2.655 2.655 0 0 1-.16-.98v-.775Zm12.874 3.497h-1.49l-2.09-6.248h1.433l1.4 4.903h.06l1.387-4.903h1.373l-2.073 6.25v-.002Z" fill="#6A6868"/></g><defs><clipPath id="a"><path fill="#fff" d="M0 0h25v25H0z"/></clipPath></defs></svg>