<svg width="28" height="31" fill="none" xmlns="http://www.w3.org/2000/svg"><path d="M20.1026 15.1395c2.0945 0 4.1032.8355 5.5843 2.3227C27.168 18.9495 28 20.9665 28 23.0698c0 2.1032-.832 4.1203-2.3131 5.6075C24.2058 30.1645 22.1971 31 20.1026 31c-2.0946 0-4.1033-.8355-5.5844-2.3227-1.481-1.4872-2.3131-3.5043-2.3131-5.6075 0-2.1033.8321-4.1203 2.3131-5.6076 1.4811-1.4872 3.4898-2.3227 5.5844-2.3227ZM13.641 0c1.3329 0 2.6112.53168 3.5537 1.47809.9425.9464 1.472 2.23 1.472 3.56842h7.1795c.3808 0 .746.15191 1.0153.42231.2693.2704.4206.63715.4206 1.01955 0 .38241-.1513.74915-.4206 1.01955s-.6345.42231-1.0153.42231h-1.2134l-.6476 6.61377c-1.9754-.9086-4.2047-1.0966-6.3034-.5317-2.0987.5649-3.9354 1.8474-5.1934 3.6264-1.258 1.779-1.8584 3.9429-1.6978 6.1188.1606 2.1759 1.0722 4.2273 2.5776 5.8006H8.34544c-.98022.0001-1.92544-.3659-2.65182-1.0268-.72638-.6609-1.182-1.5694-1.27824-2.549L2.64923 7.93023H1.4359c-.38083 0-.74605-.15191-1.01533-.42231C.15128 7.23752 0 6.87078 0 6.48837c0-.3824.15128-.74915.42057-1.01955.26928-.2704.6345-.42231 1.01533-.42231h7.17948c0-1.33842.52949-2.62202 1.47202-3.56842C11.0299.53169 12.3081 0 13.641 0Zm2.464 18.8725-.1005.0822-.0818.1009a.72263.72263 0 0 0-.1271.4095c0 .1463.0443.2891.1271.4095l.0818.1009 3.0829 3.0943-3.0829 3.0942-.0818.1009a.72263.72263 0 0 0-.1271.4095c0 .1463.0443.2891.1271.4095l.0818.1009.1005.0822a.71576.71576 0 0 0 .4078.1276c.1457 0 .2879-.0445.4078-.1276l.1005-.0822 3.0815-3.0956 3.0814 3.0956.1005.0822a.71576.71576 0 0 0 .4078.1276c.1457 0 .2879-.0445.4078-.1276l.1005-.0822.0819-.1009a.7233.7233 0 0 0 .127-.4095.7233.7233 0 0 0-.127-.4095l-.0819-.1009-3.0829-3.0942 3.0829-3.0943.0819-.1009a.7233.7233 0 0 0 .127-.4095.7233.7233 0 0 0-.127-.4095l-.0819-.1009-.1005-.0822a.71576.71576 0 0 0-.4078-.1276.71576.71576 0 0 0-.4078.1276l-.1005.0822-3.0814 3.0957-3.0815-3.0957-.1005-.0822a.71559.71559 0 0 0-.3449-.1254.71371.71371 0 0 0-.3615.062l-.1092.0634ZM13.641 2.88372c-.5712 0-1.119.22787-1.523.63347-.4039.4056-.6308.95571-.6308 1.52932h4.3077c0-.57361-.2269-1.12372-.6309-1.52932-.4039-.4056-.9517-.63347-1.523-.63347Z" fill="#6A6868"/></svg>