<svg width="31" height="27" fill="none" xmlns="http://www.w3.org/2000/svg"><path d="M29.9375 12.0417c0-.1605-.0875-.3209-.1313-.4813a6.07455 6.07455 0 0 0-.2625-.8312c-.0729-.175-.175-.35-.2625-.5396-.0875-.18961-.2187-.43753-.35-.64169-.1312-.20417-.3062-.30625-.3062-.42292s-.2917-.36458-.4521-.53958c-.1604-.175-.3063-.29167-.4667-.4375l-.5396-.48125-.525-.35A5.36443 5.36443 0 0 0 26 6.98124l-.5688-.2625a6.01978 6.01978 0 0 0-.7292-.21875 4.37113 4.37113 0 0 0-.5979-.13125h-.2625a8.7502 8.7502 0 0 0-3.1413-4.37153 8.75026 8.75026 0 0 0-5.106-1.7053 8.75003 8.75003 0 0 0-5.1379 1.60637 8.75012 8.75012 0 0 0-3.22519 4.31004h-.2625a4.37668 4.37668 0 0 0-.59792.13125 6.02347 6.02347 0 0 0-.72916.21875l-.56875.2625a5.3675 5.3675 0 0 0-.64167.33542l-.525.51042-.53958.45208c-.16042.14583-.32084.27708-.46667.4375-.14583.16042-.30625.36458-.45208.53958-.14584.175-.2625.33542-.37917.525-.11667.18959-.23333.42288-.35.64168-.11667.2187-.18958.3646-.2625.5396a6.0787 6.0787 0 0 0-.2625.8312c0 .1604-.10208.3209-.13125.4813A7.62683 7.62683 0 0 0 .91663 13.5c.00683.4452.05073.8891.13125 1.3271 0 .1458.07291.2771.10208.4229a8.1311 8.1311 0 0 0 .2625.8458l.175.4229c.12837.2813.2745.554.4375.8167l.20417.3208a.81734.81734 0 0 0 .07291.1167l.07292.1021a7.29231 7.29231 0 0 0 2.5724 2.1469 7.29226 7.29226 0 0 0 3.26093.7698 2.91687 2.91687 0 0 1 .86042-2.0563 2.91664 2.91664 0 0 1 2.05629-.8604 2.8009 2.8009 0 0 1 1.4583.3937V13.5c0-.7736.3073-1.5154.8543-2.0624a2.9164 2.9164 0 0 1 2.0624-.8543c.7735 0 1.5154.3073 2.0624.8543a2.9169 2.9169 0 0 1 .8542 2.0624v4.9146a2.91609 2.91609 0 0 1 1.4584-.3938c.79.0074 1.545.3272 2.1.8896.4909.5076.7811 1.176.8166 1.8813 1.132 0 2.2485-.2636 3.261-.7698a7.29223 7.29223 0 0 0 2.5724-2.1469l.0729-.0729a.82267.82267 0 0 0 .0729-.1167l.2042-.3208c.163-.2627.3091-.5355.4375-.8167l.175-.4229a8.141 8.141 0 0 0 .2625-.8458c0-.1459.0729-.2771.102-.423.0822-.4475.1261-.9012.1313-1.3562a7.62856 7.62856 0 0 0-.1458-1.4583Z" fill="#6A6868"/><path d="m18.8687 19.8875-1.9104 1.8375V13.5c0-.3868-.1537-.7577-.4271-1.0312a1.45841 1.45841 0 0 0-1.0312-.4271c-.3868 0-.7577.1536-1.0312.4271a1.45833 1.45833 0 0 0-.4272 1.0312v8.1521l-1.8812-1.8959a1.46562 1.46562 0 0 0-.4751-.3174 1.46346 1.46346 0 0 0-.5603-.1114c-.1923 0-.3827.0378-.5604.1114a1.46562 1.46562 0 0 0-.4751.3174 1.46493 1.46493 0 0 0-.31738.4751 1.4642 1.4642 0 0 0 0 1.1207c.07359.1777.18145.3391.31738.4751l4.375 4.375c.1363.1351.2979.2421.4756.3146.1777.0726.3679.1094.5599.1083a1.4586 1.4586 0 0 0 1.0062-.4083l4.375-4.2292c.1548-.1277.2815-.2859.3723-.4648.0908-.1789.1437-.3747.1554-.5749a1.4572 1.4572 0 0 0-.0874-.5891 1.45697 1.45697 0 0 0-.3156-.5051 1.45774 1.45774 0 0 0-.4911-.3367 1.45811 1.45811 0 0 0-1.6461.3706Z" fill="#6A6868"/><path d="M29.9375 12.0417c0-.1605-.0875-.3209-.1313-.4813a6.07455 6.07455 0 0 0-.2625-.8312c-.0729-.175-.175-.35-.2625-.5396-.0875-.18961-.2187-.43753-.35-.64169-.1312-.20417-.3062-.30625-.3062-.42292s-.2917-.36458-.4521-.53958c-.1604-.175-.3063-.29167-.4667-.4375l-.5396-.48125-.525-.35A5.36443 5.36443 0 0 0 26 6.98124l-.5688-.2625a6.01978 6.01978 0 0 0-.7292-.21875 4.37113 4.37113 0 0 0-.5979-.13125h-.2625a8.7502 8.7502 0 0 0-3.1413-4.37153 8.75026 8.75026 0 0 0-5.106-1.7053 8.75003 8.75003 0 0 0-5.1379 1.60637 8.75012 8.75012 0 0 0-3.22519 4.31004h-.2625a4.37668 4.37668 0 0 0-.59792.13125 6.02347 6.02347 0 0 0-.72916.21875l-.56875.2625a5.3675 5.3675 0 0 0-.64167.33542l-.525.51042-.53958.45208c-.16042.14583-.32084.27708-.46667.4375-.14583.16042-.30625.36458-.45208.53958-.14584.175-.2625.33542-.37917.525-.11667.18959-.23333.42288-.35.64168-.11667.2187-.18958.3646-.2625.5396a6.0787 6.0787 0 0 0-.2625.8312c0 .1604-.10208.3209-.13125.4813A7.62683 7.62683 0 0 0 .91663 13.5c.00683.4452.05073.8891.13125 1.3271 0 .1458.07291.2771.10208.4229a8.1311 8.1311 0 0 0 .2625.8458l.175.4229c.12837.2813.2745.554.4375.8167l.20417.3208a.81734.81734 0 0 0 .07291.1167l.07292.1021a7.29231 7.29231 0 0 0 2.5724 2.1469 7.29226 7.29226 0 0 0 3.26093.7698 2.91687 2.91687 0 0 1 .86042-2.0563 2.91664 2.91664 0 0 1 2.05629-.8604 2.8009 2.8009 0 0 1 1.4583.3937V13.5c0-.7736.3073-1.5154.8543-2.0624a2.9164 2.9164 0 0 1 2.0624-.8543c.7735 0 1.5154.3073 2.0624.8543a2.9169 2.9169 0 0 1 .8542 2.0624v4.9146a2.91609 2.91609 0 0 1 1.4584-.3938c.79.0074 1.545.3272 2.1.8896.4909.5076.7811 1.176.8166 1.8813 1.132 0 2.2485-.2636 3.261-.7698a7.29223 7.29223 0 0 0 2.5724-2.1469l.0729-.0729a.82267.82267 0 0 0 .0729-.1167l.2042-.3208c.163-.2627.3091-.5355.4375-.8167l.175-.4229a8.141 8.141 0 0 0 .2625-.8458c0-.1459.0729-.2771.102-.423.0822-.4475.1261-.9012.1313-1.3562a7.62856 7.62856 0 0 0-.1458-1.4583Z" fill="#6A6868"/><path d="m18.8687 19.8875-1.9104 1.8375V13.5c0-.3868-.1537-.7577-.4271-1.0312a1.45841 1.45841 0 0 0-1.0312-.4271c-.3868 0-.7577.1536-1.0312.4271a1.45833 1.45833 0 0 0-.4272 1.0312v8.1521l-1.8812-1.8959a1.46562 1.46562 0 0 0-.4751-.3174 1.46346 1.46346 0 0 0-.5603-.1114c-.1923 0-.3827.0378-.5604.1114a1.46562 1.46562 0 0 0-.4751.3174 1.46493 1.46493 0 0 0-.31738.4751 1.4642 1.4642 0 0 0 0 1.1207c.07359.1777.18145.3391.31738.4751l4.375 4.375c.1363.1351.2979.2421.4756.3146.1777.0726.3679.1094.5599.1083a1.4586 1.4586 0 0 0 1.0062-.4083l4.375-4.2292c.1548-.1277.2815-.2859.3723-.4648.0908-.1789.1437-.3747.1554-.5749a1.4572 1.4572 0 0 0-.0874-.5891 1.45697 1.45697 0 0 0-.3156-.5051 1.45774 1.45774 0 0 0-.4911-.3367 1.45811 1.45811 0 0 0-1.6461.3706Z" fill="#6A6868"/></svg>