<svg width="35" height="35" fill="none" xmlns="http://www.w3.org/2000/svg"><path d="M31.938 16.042c0-.16-.088-.321-.132-.482a6.075 6.075 0 0 0-.262-.83c-.073-.176-.175-.35-.263-.54a5.66 5.66 0 0 0-.35-.642c-.131-.204-.306-.306-.306-.423 0-.117-.292-.365-.452-.54-.16-.175-.306-.291-.467-.437l-.54-.481-.524-.35A5.365 5.365 0 0 0 28 10.98l-.569-.262a6.029 6.029 0 0 0-.729-.219 4.376 4.376 0 0 0-.598-.131h-.262a8.75 8.75 0 0 0-16.61-.16h-.263c-.202.03-.402.073-.598.13-.248.058-.491.131-.73.22l-.568.262c-.221.097-.436.21-.642.335l-.525.51-.54.453c-.16.146-.32.277-.466.437-.146.16-.306.365-.452.54a4.348 4.348 0 0 0-.38.525c-.116.19-.233.423-.35.641-.116.22-.189.365-.262.54-.107.27-.195.548-.262.831 0 .16-.102.321-.132.482-.09.456-.14.92-.145 1.385.006.445.05.89.13 1.327 0 .146.074.277.103.423.072.287.16.569.262.846l.175.423c.129.281.275.554.438.816l.204.321c.021.041.045.08.073.117l.073.102a7.292 7.292 0 0 0 5.833 2.917 2.917 2.917 0 0 1 .86-2.057 2.917 2.917 0 0 1 2.057-.86 2.8 2.8 0 0 1 1.458.394V17.5a2.917 2.917 0 1 1 5.834 0v4.915a2.916 2.916 0 0 1 1.458-.394 2.99 2.99 0 0 1 2.1.89c.49.507.781 1.175.817 1.88a7.293 7.293 0 0 0 5.833-2.916l.073-.073a.823.823 0 0 0 .073-.117l.204-.32a7.3 7.3 0 0 0 .438-.817l.174-.423c.103-.277.19-.56.263-.846 0-.146.073-.277.102-.423.082-.447.126-.901.131-1.356a7.629 7.629 0 0 0-.145-1.458Z" fill="#6A6868"/><path d="m20.869 23.887-1.91 1.838V17.5a1.458 1.458 0 0 0-2.917 0v8.152l-1.882-1.896a1.466 1.466 0 0 0-2.388 1.596c.074.178.182.34.317.475l4.376 4.375a1.458 1.458 0 0 0 2.041.015l4.375-4.23a1.46 1.46 0 1 0-2.012-2.1Z" fill="#6A6868"/><path d="M31.938 16.042c0-.16-.088-.321-.132-.482a6.075 6.075 0 0 0-.262-.83c-.073-.176-.175-.35-.263-.54a5.66 5.66 0 0 0-.35-.642c-.131-.204-.306-.306-.306-.423 0-.117-.292-.365-.452-.54-.16-.175-.306-.291-.467-.437l-.54-.481-.524-.35A5.365 5.365 0 0 0 28 10.98l-.569-.262a6.029 6.029 0 0 0-.729-.219 4.376 4.376 0 0 0-.598-.131h-.262a8.75 8.75 0 0 0-16.61-.16h-.263c-.202.03-.402.073-.598.13-.248.058-.491.131-.73.22l-.568.262c-.221.097-.436.21-.642.335l-.525.51-.54.453c-.16.146-.32.277-.466.437-.146.16-.306.365-.452.54a4.348 4.348 0 0 0-.38.525c-.116.19-.233.423-.35.641-.116.22-.189.365-.262.54-.107.27-.195.548-.262.831 0 .16-.102.321-.132.482-.09.456-.14.92-.145 1.385.006.445.05.89.13 1.327 0 .146.074.277.103.423.072.287.16.569.262.846l.175.423c.129.281.275.554.438.816l.204.321c.021.041.045.08.073.117l.073.102a7.292 7.292 0 0 0 5.833 2.917 2.917 2.917 0 0 1 .86-2.057 2.917 2.917 0 0 1 2.057-.86 2.8 2.8 0 0 1 1.458.394V17.5a2.917 2.917 0 1 1 5.834 0v4.915a2.916 2.916 0 0 1 1.458-.394 2.99 2.99 0 0 1 2.1.89c.49.507.781 1.175.817 1.88a7.293 7.293 0 0 0 5.833-2.916l.073-.073a.823.823 0 0 0 .073-.117l.204-.32a7.3 7.3 0 0 0 .438-.817l.174-.423c.103-.277.19-.56.263-.846 0-.146.073-.277.102-.423.082-.447.126-.901.131-1.356a7.629 7.629 0 0 0-.145-1.458Z" fill="#6A6868"/><path d="m20.869 23.887-1.91 1.838V17.5a1.458 1.458 0 0 0-2.917 0v8.152l-1.882-1.896a1.466 1.466 0 0 0-2.388 1.596c.074.178.182.34.317.475l4.376 4.375a1.458 1.458 0 0 0 2.041.015l4.375-4.23a1.46 1.46 0 1 0-2.012-2.1Z" fill="#6A6868"/></svg>