<svg width="29" height="25" fill="none" xmlns="http://www.w3.org/2000/svg"><path d="M22.263 5.9 29 12.55l-6.737 6.6v-4.425H12.18v-4.4h10.082V5.9ZM18.21 18.7l2.588 2.675c-2.539 2.433-5.289 3.65-8.25 3.65-3.532 0-6.506-1.196-8.923-3.587C1.208 19.046 0 16.058 0 12.475c0-2.25.553-4.333 1.66-6.25 1.107-1.917 2.6-3.43 4.48-4.537A11.827 11.827 0 0 1 12.253.025c2.995 0 5.834 1.233 8.52 3.7l-2.564 2.65c-1.855-1.733-3.832-2.6-5.931-2.6-2.425 0-4.472.867-6.14 2.6-1.668 1.733-2.502 3.85-2.502 6.35 0 2.333.859 4.342 2.576 6.025 1.716 1.683 3.73 2.525 6.041 2.525 2.132 0 4.118-.858 5.956-2.575Z" fill="#55575E"/></svg>