<svg width="37" height="24" fill="none" xmlns="http://www.w3.org/2000/svg"><path d="M36.7765 11.0875C33.293 4.47437 26.3966 0 18.5 0 10.6034 0 3.70511 4.4775.2235 11.0881c-.14694.2828-.2235.5953-.2235.9122 0 .3169.07656.6294.2235.9122C3.70705 19.5256 10.6034 24 18.5 24c7.8966 0 14.7949-4.4775 18.2765-11.0881.1469-.2828.2235-.5953.2235-.9122 0-.3169-.0766-.6294-.2235-.9122ZM18.5 21c-1.8295 0-3.6179-.5278-5.139-1.5168-1.5212-.9889-2.7068-2.3945-3.4069-4.039-.70011-1.6446-.88329-3.4542-.52638-5.2.35691-1.74584 1.23788-3.34949 2.53148-4.60816 1.2937-1.25867 2.9419-2.11584 4.7362-2.46311 1.7943-.34726 3.6542-.16903 5.3444.51215 1.6902.68119 3.1349 1.83475 4.1513 3.31479C27.2075 8.47991 27.75 10.22 27.75 12c.0006 1.1821-.2382 2.3526-.7029 3.4448-.4646 1.0922-1.146 2.0846-2.005 2.9204-.8591.8359-1.879 1.4988-3.0016 1.9509-1.1225.4521-2.3256.6845-3.5405.6839Zm0-15a6.27972 6.27972 0 0 0-1.6258.23687c.4356.57605.6447 1.28493.5893 1.99809-.0555.71317-.3718 1.38338-.8916 1.88914-.5197.5057-1.2086.8134-1.9415.8674-.733.0539-1.4616-.1495-2.0536-.5734-.3372 1.2085-.2763 2.4894.174 3.6625.4503 1.1731 1.2673 2.1793 2.3361 2.8769s2.3355 1.0515 3.6218 1.012c1.2864-.0395 2.5276-.4706 3.549-1.2324 1.0214-.7619 1.7716-1.8162 2.1449-3.0146.3732-1.1984.3509-2.4805-.064-3.6659-.4148-1.18537-1.2013-2.21433-2.2487-2.94203C21.0426 6.38686 19.787 5.99705 18.5 6Z" fill="#6A6868"/></svg>